<svg width="50" height="50" viewBox="0 0 50 50" fill="none" xmlns="http://www.w3.org/2000/svg">
<circle cx="25" cy="25" r="25" fill="#673AB7"/>
<path d="M35.6667 14.3333L19.8267 30.1733M28.2933 28.3067L35.6667 35.6667M19.8267 19.8267L25 25M21 17C21 19.2091 19.2091 21 17 21C14.7909 21 13 19.2091 13 17C13 14.7909 14.7909 13 17 13C19.2091 13 21 14.7909 21 17ZM21 33C21 35.2091 19.2091 37 17 37C14.7909 37 13 35.2091 13 33C13 30.7909 14.7909 29 17 29C19.2091 29 21 30.7909 21 33Z" stroke="#F5F5F5" stroke-width="3" stroke-linecap="round" stroke-linejoin="round"/>
</svg>
